%
M48
M72
T01C0.0197
T02C0.0315
T03C0.0984
%
T01
X8183Y1660
X14183Y1285
X17183Y2035
X18683Y2410
X17433Y3785
X18683Y4410
X17933Y5285
X15933Y4910
X14558Y4535
X13808Y4785
X12683Y4535
X9808Y4535
X6808Y4535
X6183Y6535
X9183Y6910
X12183Y7285
X13683Y8160
X15183Y7785
X14808Y7410
X16308Y7535
X16808Y7535
X17308Y7535
X15433Y8410
X15808Y8785
X13683Y9660
X13183Y9410
X12683Y9160
X12183Y9535
X11183Y9785
X9808Y8910
X9183Y9660
X6808Y8535
X6183Y9660
X12683Y10535
X15808Y11535
X18683Y12910
X18183Y13660
X20683Y13660
X22558Y13285
X26683Y11535
X27558Y11910
X24183Y11160
X23683Y10410
X22683Y10035
X21558Y10785
X19183Y10160
X15933Y9910
X22183Y8660
X25183Y8285
X21183Y6660
X22183Y5160
X23308Y4285
X25183Y5160
X27183Y1285
T02
X27183Y2936
X28183Y2936
X26183Y2936
X25183Y2936
X24183Y2936
X23183Y2936
X22183Y2936
X21183Y2936
X20183Y2936
X19183Y2936
X18183Y2936
X17183Y2936
X16183Y2941
X15183Y2936
X14183Y2936
X13183Y2936
X12183Y2936
X11183Y2936
X10183Y2936
X9183Y2936
X8183Y2936
X7183Y2936
X6183Y2936
X5183Y2936
X4183Y2936
X4183Y12384
X5183Y12384
X6183Y12384
X7183Y12384
X8183Y12384
X9183Y12384
X10183Y12384
X11183Y12384
X12183Y12384
X13183Y12384
X14183Y12384
X15183Y12384
X16183Y12379
X17183Y12384
X18183Y12384
X19183Y12384
X20183Y12384
X21183Y12384
X22183Y12384
X23183Y12384
X24183Y12384
X25183Y12384
X26183Y12384
X27183Y12384
X28183Y12384
T03
X1683Y1660
X1683Y13660
X30683Y13660
X30683Y1660
M30
