G75*
%MOIN*%
%OFA0B0*%
%FSLAX25Y25*%
%IPPOS*%
%LPD*%
%AMOC8*
5,1,8,0,0,1.08239X$1,22.5*
%
%ADD10C,0.13843*%
%ADD11C,0.06600*%
%ADD12C,0.03569*%
%ADD13C,0.01200*%
D10*
X0016832Y0016600D03*
X0016832Y0136600D03*
X0306832Y0136600D03*
X0306832Y0016600D03*
D11*
X0281832Y0029356D03*
X0271832Y0029356D03*
X0261832Y0029356D03*
X0251832Y0029356D03*
X0241832Y0029356D03*
X0231832Y0029356D03*
X0221832Y0029356D03*
X0211832Y0029356D03*
X0201832Y0029356D03*
X0191832Y0029356D03*
X0181832Y0029356D03*
X0171832Y0029356D03*
X0151832Y0029356D03*
X0141832Y0029356D03*
X0131832Y0029356D03*
X0121832Y0029356D03*
X0111832Y0029356D03*
X0101832Y0029356D03*
X0091832Y0029356D03*
X0081832Y0029356D03*
X0071832Y0029356D03*
X0061832Y0029356D03*
X0051832Y0029356D03*
X0041832Y0029356D03*
X0041832Y0123844D03*
X0051832Y0123844D03*
X0061832Y0123844D03*
X0071832Y0123844D03*
X0081832Y0123844D03*
X0091832Y0123844D03*
X0101832Y0123844D03*
X0111832Y0123844D03*
X0121832Y0123844D03*
X0131832Y0123844D03*
X0141832Y0123844D03*
X0151832Y0123844D03*
X0171832Y0123844D03*
X0181832Y0123844D03*
X0191832Y0123844D03*
X0201832Y0123844D03*
X0211832Y0123844D03*
X0221832Y0123844D03*
X0231832Y0123844D03*
X0241832Y0123844D03*
X0251832Y0123844D03*
X0261832Y0123844D03*
X0271832Y0123844D03*
X0281832Y0123844D03*
D12*
X0275582Y0119100D03*
X0266832Y0115350D03*
X0241832Y0111600D03*
X0236832Y0104100D03*
X0226832Y0100350D03*
X0215582Y0107850D03*
X0191832Y0101600D03*
X0159332Y0099100D03*
X0158082Y0087850D03*
X0154332Y0084100D03*
X0151832Y0077850D03*
X0148082Y0074100D03*
X0136832Y0081600D03*
X0126832Y0091600D03*
X0131832Y0094100D03*
X0136832Y0096600D03*
X0126832Y0105350D03*
X0111832Y0097850D03*
X0121832Y0095350D03*
X0098082Y0089100D03*
X0091832Y0096600D03*
X0068082Y0085350D03*
X0061832Y0096600D03*
X0091832Y0069100D03*
X0061832Y0065350D03*
X0068082Y0045350D03*
X0098082Y0045350D03*
X0126832Y0045350D03*
X0138082Y0047850D03*
X0145582Y0045350D03*
X0159332Y0049100D03*
X0179332Y0052850D03*
X0186832Y0044100D03*
X0174332Y0037850D03*
X0186832Y0024100D03*
X0171832Y0020350D03*
X0141832Y0012850D03*
X0081832Y0016600D03*
X0121832Y0072850D03*
X0163082Y0075350D03*
X0168082Y0075350D03*
X0173082Y0075350D03*
X0211832Y0066600D03*
X0221832Y0051600D03*
X0233082Y0042850D03*
X0251832Y0051600D03*
X0251832Y0082850D03*
X0221832Y0086600D03*
X0158082Y0115350D03*
X0186832Y0129100D03*
X0181832Y0136600D03*
X0206832Y0136600D03*
X0225582Y0132850D03*
X0271832Y0012850D03*
D13*
X0271832Y0029356D01*
X0261832Y0029356D02*
X0261832Y0025350D01*
X0249332Y0012850D01*
X0141832Y0012850D01*
X0114332Y0024100D02*
X0186832Y0024100D01*
X0171832Y0020350D02*
X0059332Y0020350D01*
X0051832Y0026600D01*
X0051832Y0029356D01*
X0041832Y0029356D02*
X0041832Y0034100D01*
X0049332Y0041600D01*
X0159332Y0041600D01*
X0163082Y0045350D01*
X0163082Y0075350D01*
X0166832Y0079100D01*
X0183082Y0079100D01*
X0186832Y0075350D01*
X0186832Y0044100D01*
X0179332Y0042850D02*
X0174332Y0037850D01*
X0173082Y0041600D02*
X0168082Y0036600D01*
X0105582Y0036600D01*
X0101832Y0032850D01*
X0101832Y0029356D01*
X0111832Y0029356D02*
X0111832Y0026600D01*
X0114332Y0024100D01*
X0131832Y0029356D02*
X0131832Y0030350D01*
X0135582Y0034100D01*
X0224332Y0034100D01*
X0233082Y0042850D01*
X0238338Y0046600D02*
X0241832Y0043106D01*
X0241832Y0029356D01*
X0238338Y0046600D02*
X0220582Y0046600D01*
X0216832Y0050350D01*
X0216832Y0076600D01*
X0209332Y0084100D01*
X0154332Y0084100D01*
X0148082Y0080350D02*
X0145582Y0082850D01*
X0145582Y0086600D01*
X0151832Y0092850D01*
X0219332Y0092850D01*
X0226832Y0100350D01*
X0236832Y0104100D02*
X0213082Y0104100D01*
X0211832Y0105350D01*
X0126832Y0105350D01*
X0130582Y0102850D02*
X0129332Y0101600D01*
X0046832Y0101600D01*
X0041832Y0106600D01*
X0041832Y0123844D01*
X0071832Y0123844D02*
X0071832Y0112850D01*
X0074957Y0109725D01*
X0075582Y0109100D01*
X0213082Y0109100D01*
X0214332Y0107850D01*
X0215582Y0107850D01*
X0191832Y0101600D02*
X0190582Y0102850D01*
X0130582Y0102850D01*
X0131832Y0100350D02*
X0130582Y0099100D01*
X0113082Y0099100D01*
X0111832Y0097850D01*
X0121832Y0095350D02*
X0121832Y0072850D01*
X0136832Y0081600D02*
X0136832Y0096600D01*
X0131832Y0094100D02*
X0131832Y0047850D01*
X0135582Y0044100D01*
X0144332Y0044100D01*
X0145582Y0045350D01*
X0139332Y0049100D02*
X0138082Y0047850D01*
X0139332Y0049100D02*
X0159332Y0049100D01*
X0173082Y0041600D02*
X0173082Y0075350D01*
X0168082Y0075350D02*
X0168082Y0040350D01*
X0166832Y0039100D01*
X0075582Y0039100D01*
X0071832Y0035350D01*
X0071832Y0029356D01*
X0081832Y0016600D02*
X0191832Y0016600D01*
X0201832Y0026600D01*
X0201832Y0029356D01*
X0179332Y0042850D02*
X0179332Y0052850D01*
X0211832Y0066600D02*
X0211832Y0075350D01*
X0205582Y0081600D01*
X0163082Y0081600D01*
X0159332Y0077850D01*
X0151832Y0077850D01*
X0148082Y0080350D02*
X0148082Y0074100D01*
X0158082Y0087850D02*
X0218082Y0087850D01*
X0220582Y0090350D01*
X0280582Y0090350D01*
X0286832Y0096600D01*
X0286832Y0131600D01*
X0281832Y0136600D01*
X0206832Y0136600D01*
X0225582Y0132850D02*
X0118082Y0132850D01*
X0111832Y0126600D01*
X0111832Y0123844D01*
X0101832Y0123844D02*
X0101832Y0116600D01*
X0106832Y0111600D01*
X0241832Y0111600D01*
X0261832Y0123844D02*
X0261832Y0126600D01*
X0259332Y0129100D01*
X0186832Y0129100D01*
X0144332Y0129100D01*
X0141832Y0126600D01*
X0141832Y0123844D01*
X0133082Y0119100D02*
X0131832Y0120350D01*
X0131832Y0123844D01*
X0133082Y0119100D02*
X0275582Y0119100D01*
X0266832Y0115350D02*
X0158082Y0115350D01*
X0158082Y0100350D02*
X0131832Y0100350D01*
X0126832Y0091600D02*
X0126832Y0045350D01*
X0098082Y0045350D02*
X0098082Y0089100D01*
X0091832Y0096600D02*
X0091832Y0069100D01*
X0061832Y0065350D02*
X0061832Y0096600D01*
X0068082Y0085350D02*
X0068082Y0045350D01*
X0158082Y0100350D02*
X0159332Y0099100D01*
X0221832Y0086600D02*
X0221832Y0051600D01*
X0251832Y0051600D02*
X0251832Y0082850D01*
X0181832Y0136600D02*
X0086832Y0136600D01*
X0081832Y0131600D01*
X0081832Y0123844D01*
M02*
