G75*
%MOIN*%
%OFA0B0*%
%FSLAX25Y25*%
%IPPOS*%
%LPD*%
%AMOC8*
5,1,8,0,0,1.08239X$1,22.5*
%
%ADD10C,0.00500*%
%ADD11C,0.00800*%
%ADD12C,0.05000*%
D10*
X0032462Y0012230D02*
X0032462Y0140970D01*
X0161202Y0140970D01*
X0161202Y0012230D01*
X0032462Y0012230D01*
X0162462Y0012230D02*
X0162462Y0140970D01*
X0291202Y0140970D01*
X0291202Y0012230D01*
X0162462Y0012230D01*
X0116937Y0130350D02*
X0115769Y0130350D01*
X0115185Y0130934D01*
X0115185Y0133269D01*
X0115769Y0133853D01*
X0116937Y0133853D01*
X0117521Y0133269D01*
X0117521Y0130934D02*
X0116937Y0130350D01*
X0113838Y0130350D02*
X0111502Y0130350D01*
X0111502Y0133853D01*
X0110155Y0133853D02*
X0108987Y0133853D01*
X0109571Y0133853D02*
X0109571Y0130934D01*
X0108987Y0130350D01*
X0108403Y0130350D01*
X0107819Y0130934D01*
X0106471Y0130934D02*
X0105888Y0130350D01*
X0104720Y0130350D01*
X0104136Y0130934D01*
X0104136Y0133269D01*
X0104720Y0133853D01*
X0105888Y0133853D01*
X0106471Y0133269D01*
X0102788Y0130350D02*
X0100453Y0130350D01*
X0100453Y0133853D01*
X0099105Y0133853D02*
X0097937Y0133853D01*
X0098521Y0133853D02*
X0098521Y0130934D01*
X0097937Y0130350D01*
X0097354Y0130350D01*
X0096770Y0130934D01*
X0095422Y0130934D02*
X0094838Y0130350D01*
X0093670Y0130350D01*
X0093087Y0130934D01*
X0093087Y0133269D01*
X0093670Y0133853D01*
X0094838Y0133853D01*
X0095422Y0133269D01*
X0091739Y0130350D02*
X0089403Y0130350D01*
X0089403Y0133853D01*
X0088056Y0133853D02*
X0086888Y0133853D01*
X0087472Y0133853D02*
X0087472Y0130934D01*
X0086888Y0130350D01*
X0086304Y0130350D01*
X0085720Y0130934D01*
X0084373Y0130934D02*
X0083789Y0130350D01*
X0082621Y0130350D01*
X0082037Y0130934D01*
X0082037Y0133269D01*
X0082621Y0133853D01*
X0083789Y0133853D01*
X0084373Y0133269D01*
X0080689Y0130350D02*
X0078354Y0130350D01*
X0078354Y0133853D01*
X0077006Y0133853D02*
X0075839Y0133853D01*
X0076422Y0133853D02*
X0076422Y0130934D01*
X0075839Y0130350D01*
X0075255Y0130350D01*
X0074671Y0130934D01*
D11*
X0008958Y0016600D02*
X0008960Y0016793D01*
X0008967Y0016986D01*
X0008979Y0017179D01*
X0008996Y0017372D01*
X0009017Y0017564D01*
X0009043Y0017755D01*
X0009074Y0017946D01*
X0009109Y0018136D01*
X0009149Y0018325D01*
X0009194Y0018513D01*
X0009243Y0018700D01*
X0009297Y0018886D01*
X0009355Y0019070D01*
X0009418Y0019253D01*
X0009486Y0019434D01*
X0009557Y0019613D01*
X0009634Y0019791D01*
X0009714Y0019967D01*
X0009799Y0020140D01*
X0009888Y0020312D01*
X0009981Y0020481D01*
X0010078Y0020648D01*
X0010180Y0020813D01*
X0010285Y0020975D01*
X0010394Y0021134D01*
X0010508Y0021291D01*
X0010625Y0021444D01*
X0010745Y0021595D01*
X0010870Y0021743D01*
X0010998Y0021888D01*
X0011129Y0022029D01*
X0011264Y0022168D01*
X0011403Y0022303D01*
X0011544Y0022434D01*
X0011689Y0022562D01*
X0011837Y0022687D01*
X0011988Y0022807D01*
X0012141Y0022924D01*
X0012298Y0023038D01*
X0012457Y0023147D01*
X0012619Y0023252D01*
X0012784Y0023354D01*
X0012951Y0023451D01*
X0013120Y0023544D01*
X0013292Y0023633D01*
X0013465Y0023718D01*
X0013641Y0023798D01*
X0013819Y0023875D01*
X0013998Y0023946D01*
X0014179Y0024014D01*
X0014362Y0024077D01*
X0014546Y0024135D01*
X0014732Y0024189D01*
X0014919Y0024238D01*
X0015107Y0024283D01*
X0015296Y0024323D01*
X0015486Y0024358D01*
X0015677Y0024389D01*
X0015868Y0024415D01*
X0016060Y0024436D01*
X0016253Y0024453D01*
X0016446Y0024465D01*
X0016639Y0024472D01*
X0016832Y0024474D01*
X0017025Y0024472D01*
X0017218Y0024465D01*
X0017411Y0024453D01*
X0017604Y0024436D01*
X0017796Y0024415D01*
X0017987Y0024389D01*
X0018178Y0024358D01*
X0018368Y0024323D01*
X0018557Y0024283D01*
X0018745Y0024238D01*
X0018932Y0024189D01*
X0019118Y0024135D01*
X0019302Y0024077D01*
X0019485Y0024014D01*
X0019666Y0023946D01*
X0019845Y0023875D01*
X0020023Y0023798D01*
X0020199Y0023718D01*
X0020372Y0023633D01*
X0020544Y0023544D01*
X0020713Y0023451D01*
X0020880Y0023354D01*
X0021045Y0023252D01*
X0021207Y0023147D01*
X0021366Y0023038D01*
X0021523Y0022924D01*
X0021676Y0022807D01*
X0021827Y0022687D01*
X0021975Y0022562D01*
X0022120Y0022434D01*
X0022261Y0022303D01*
X0022400Y0022168D01*
X0022535Y0022029D01*
X0022666Y0021888D01*
X0022794Y0021743D01*
X0022919Y0021595D01*
X0023039Y0021444D01*
X0023156Y0021291D01*
X0023270Y0021134D01*
X0023379Y0020975D01*
X0023484Y0020813D01*
X0023586Y0020648D01*
X0023683Y0020481D01*
X0023776Y0020312D01*
X0023865Y0020140D01*
X0023950Y0019967D01*
X0024030Y0019791D01*
X0024107Y0019613D01*
X0024178Y0019434D01*
X0024246Y0019253D01*
X0024309Y0019070D01*
X0024367Y0018886D01*
X0024421Y0018700D01*
X0024470Y0018513D01*
X0024515Y0018325D01*
X0024555Y0018136D01*
X0024590Y0017946D01*
X0024621Y0017755D01*
X0024647Y0017564D01*
X0024668Y0017372D01*
X0024685Y0017179D01*
X0024697Y0016986D01*
X0024704Y0016793D01*
X0024706Y0016600D01*
X0024704Y0016407D01*
X0024697Y0016214D01*
X0024685Y0016021D01*
X0024668Y0015828D01*
X0024647Y0015636D01*
X0024621Y0015445D01*
X0024590Y0015254D01*
X0024555Y0015064D01*
X0024515Y0014875D01*
X0024470Y0014687D01*
X0024421Y0014500D01*
X0024367Y0014314D01*
X0024309Y0014130D01*
X0024246Y0013947D01*
X0024178Y0013766D01*
X0024107Y0013587D01*
X0024030Y0013409D01*
X0023950Y0013233D01*
X0023865Y0013060D01*
X0023776Y0012888D01*
X0023683Y0012719D01*
X0023586Y0012552D01*
X0023484Y0012387D01*
X0023379Y0012225D01*
X0023270Y0012066D01*
X0023156Y0011909D01*
X0023039Y0011756D01*
X0022919Y0011605D01*
X0022794Y0011457D01*
X0022666Y0011312D01*
X0022535Y0011171D01*
X0022400Y0011032D01*
X0022261Y0010897D01*
X0022120Y0010766D01*
X0021975Y0010638D01*
X0021827Y0010513D01*
X0021676Y0010393D01*
X0021523Y0010276D01*
X0021366Y0010162D01*
X0021207Y0010053D01*
X0021045Y0009948D01*
X0020880Y0009846D01*
X0020713Y0009749D01*
X0020544Y0009656D01*
X0020372Y0009567D01*
X0020199Y0009482D01*
X0020023Y0009402D01*
X0019845Y0009325D01*
X0019666Y0009254D01*
X0019485Y0009186D01*
X0019302Y0009123D01*
X0019118Y0009065D01*
X0018932Y0009011D01*
X0018745Y0008962D01*
X0018557Y0008917D01*
X0018368Y0008877D01*
X0018178Y0008842D01*
X0017987Y0008811D01*
X0017796Y0008785D01*
X0017604Y0008764D01*
X0017411Y0008747D01*
X0017218Y0008735D01*
X0017025Y0008728D01*
X0016832Y0008726D01*
X0016639Y0008728D01*
X0016446Y0008735D01*
X0016253Y0008747D01*
X0016060Y0008764D01*
X0015868Y0008785D01*
X0015677Y0008811D01*
X0015486Y0008842D01*
X0015296Y0008877D01*
X0015107Y0008917D01*
X0014919Y0008962D01*
X0014732Y0009011D01*
X0014546Y0009065D01*
X0014362Y0009123D01*
X0014179Y0009186D01*
X0013998Y0009254D01*
X0013819Y0009325D01*
X0013641Y0009402D01*
X0013465Y0009482D01*
X0013292Y0009567D01*
X0013120Y0009656D01*
X0012951Y0009749D01*
X0012784Y0009846D01*
X0012619Y0009948D01*
X0012457Y0010053D01*
X0012298Y0010162D01*
X0012141Y0010276D01*
X0011988Y0010393D01*
X0011837Y0010513D01*
X0011689Y0010638D01*
X0011544Y0010766D01*
X0011403Y0010897D01*
X0011264Y0011032D01*
X0011129Y0011171D01*
X0010998Y0011312D01*
X0010870Y0011457D01*
X0010745Y0011605D01*
X0010625Y0011756D01*
X0010508Y0011909D01*
X0010394Y0012066D01*
X0010285Y0012225D01*
X0010180Y0012387D01*
X0010078Y0012552D01*
X0009981Y0012719D01*
X0009888Y0012888D01*
X0009799Y0013060D01*
X0009714Y0013233D01*
X0009634Y0013409D01*
X0009557Y0013587D01*
X0009486Y0013766D01*
X0009418Y0013947D01*
X0009355Y0014130D01*
X0009297Y0014314D01*
X0009243Y0014500D01*
X0009194Y0014687D01*
X0009149Y0014875D01*
X0009109Y0015064D01*
X0009074Y0015254D01*
X0009043Y0015445D01*
X0009017Y0015636D01*
X0008996Y0015828D01*
X0008979Y0016021D01*
X0008967Y0016214D01*
X0008960Y0016407D01*
X0008958Y0016600D01*
X0008958Y0136600D02*
X0008960Y0136793D01*
X0008967Y0136986D01*
X0008979Y0137179D01*
X0008996Y0137372D01*
X0009017Y0137564D01*
X0009043Y0137755D01*
X0009074Y0137946D01*
X0009109Y0138136D01*
X0009149Y0138325D01*
X0009194Y0138513D01*
X0009243Y0138700D01*
X0009297Y0138886D01*
X0009355Y0139070D01*
X0009418Y0139253D01*
X0009486Y0139434D01*
X0009557Y0139613D01*
X0009634Y0139791D01*
X0009714Y0139967D01*
X0009799Y0140140D01*
X0009888Y0140312D01*
X0009981Y0140481D01*
X0010078Y0140648D01*
X0010180Y0140813D01*
X0010285Y0140975D01*
X0010394Y0141134D01*
X0010508Y0141291D01*
X0010625Y0141444D01*
X0010745Y0141595D01*
X0010870Y0141743D01*
X0010998Y0141888D01*
X0011129Y0142029D01*
X0011264Y0142168D01*
X0011403Y0142303D01*
X0011544Y0142434D01*
X0011689Y0142562D01*
X0011837Y0142687D01*
X0011988Y0142807D01*
X0012141Y0142924D01*
X0012298Y0143038D01*
X0012457Y0143147D01*
X0012619Y0143252D01*
X0012784Y0143354D01*
X0012951Y0143451D01*
X0013120Y0143544D01*
X0013292Y0143633D01*
X0013465Y0143718D01*
X0013641Y0143798D01*
X0013819Y0143875D01*
X0013998Y0143946D01*
X0014179Y0144014D01*
X0014362Y0144077D01*
X0014546Y0144135D01*
X0014732Y0144189D01*
X0014919Y0144238D01*
X0015107Y0144283D01*
X0015296Y0144323D01*
X0015486Y0144358D01*
X0015677Y0144389D01*
X0015868Y0144415D01*
X0016060Y0144436D01*
X0016253Y0144453D01*
X0016446Y0144465D01*
X0016639Y0144472D01*
X0016832Y0144474D01*
X0017025Y0144472D01*
X0017218Y0144465D01*
X0017411Y0144453D01*
X0017604Y0144436D01*
X0017796Y0144415D01*
X0017987Y0144389D01*
X0018178Y0144358D01*
X0018368Y0144323D01*
X0018557Y0144283D01*
X0018745Y0144238D01*
X0018932Y0144189D01*
X0019118Y0144135D01*
X0019302Y0144077D01*
X0019485Y0144014D01*
X0019666Y0143946D01*
X0019845Y0143875D01*
X0020023Y0143798D01*
X0020199Y0143718D01*
X0020372Y0143633D01*
X0020544Y0143544D01*
X0020713Y0143451D01*
X0020880Y0143354D01*
X0021045Y0143252D01*
X0021207Y0143147D01*
X0021366Y0143038D01*
X0021523Y0142924D01*
X0021676Y0142807D01*
X0021827Y0142687D01*
X0021975Y0142562D01*
X0022120Y0142434D01*
X0022261Y0142303D01*
X0022400Y0142168D01*
X0022535Y0142029D01*
X0022666Y0141888D01*
X0022794Y0141743D01*
X0022919Y0141595D01*
X0023039Y0141444D01*
X0023156Y0141291D01*
X0023270Y0141134D01*
X0023379Y0140975D01*
X0023484Y0140813D01*
X0023586Y0140648D01*
X0023683Y0140481D01*
X0023776Y0140312D01*
X0023865Y0140140D01*
X0023950Y0139967D01*
X0024030Y0139791D01*
X0024107Y0139613D01*
X0024178Y0139434D01*
X0024246Y0139253D01*
X0024309Y0139070D01*
X0024367Y0138886D01*
X0024421Y0138700D01*
X0024470Y0138513D01*
X0024515Y0138325D01*
X0024555Y0138136D01*
X0024590Y0137946D01*
X0024621Y0137755D01*
X0024647Y0137564D01*
X0024668Y0137372D01*
X0024685Y0137179D01*
X0024697Y0136986D01*
X0024704Y0136793D01*
X0024706Y0136600D01*
X0024704Y0136407D01*
X0024697Y0136214D01*
X0024685Y0136021D01*
X0024668Y0135828D01*
X0024647Y0135636D01*
X0024621Y0135445D01*
X0024590Y0135254D01*
X0024555Y0135064D01*
X0024515Y0134875D01*
X0024470Y0134687D01*
X0024421Y0134500D01*
X0024367Y0134314D01*
X0024309Y0134130D01*
X0024246Y0133947D01*
X0024178Y0133766D01*
X0024107Y0133587D01*
X0024030Y0133409D01*
X0023950Y0133233D01*
X0023865Y0133060D01*
X0023776Y0132888D01*
X0023683Y0132719D01*
X0023586Y0132552D01*
X0023484Y0132387D01*
X0023379Y0132225D01*
X0023270Y0132066D01*
X0023156Y0131909D01*
X0023039Y0131756D01*
X0022919Y0131605D01*
X0022794Y0131457D01*
X0022666Y0131312D01*
X0022535Y0131171D01*
X0022400Y0131032D01*
X0022261Y0130897D01*
X0022120Y0130766D01*
X0021975Y0130638D01*
X0021827Y0130513D01*
X0021676Y0130393D01*
X0021523Y0130276D01*
X0021366Y0130162D01*
X0021207Y0130053D01*
X0021045Y0129948D01*
X0020880Y0129846D01*
X0020713Y0129749D01*
X0020544Y0129656D01*
X0020372Y0129567D01*
X0020199Y0129482D01*
X0020023Y0129402D01*
X0019845Y0129325D01*
X0019666Y0129254D01*
X0019485Y0129186D01*
X0019302Y0129123D01*
X0019118Y0129065D01*
X0018932Y0129011D01*
X0018745Y0128962D01*
X0018557Y0128917D01*
X0018368Y0128877D01*
X0018178Y0128842D01*
X0017987Y0128811D01*
X0017796Y0128785D01*
X0017604Y0128764D01*
X0017411Y0128747D01*
X0017218Y0128735D01*
X0017025Y0128728D01*
X0016832Y0128726D01*
X0016639Y0128728D01*
X0016446Y0128735D01*
X0016253Y0128747D01*
X0016060Y0128764D01*
X0015868Y0128785D01*
X0015677Y0128811D01*
X0015486Y0128842D01*
X0015296Y0128877D01*
X0015107Y0128917D01*
X0014919Y0128962D01*
X0014732Y0129011D01*
X0014546Y0129065D01*
X0014362Y0129123D01*
X0014179Y0129186D01*
X0013998Y0129254D01*
X0013819Y0129325D01*
X0013641Y0129402D01*
X0013465Y0129482D01*
X0013292Y0129567D01*
X0013120Y0129656D01*
X0012951Y0129749D01*
X0012784Y0129846D01*
X0012619Y0129948D01*
X0012457Y0130053D01*
X0012298Y0130162D01*
X0012141Y0130276D01*
X0011988Y0130393D01*
X0011837Y0130513D01*
X0011689Y0130638D01*
X0011544Y0130766D01*
X0011403Y0130897D01*
X0011264Y0131032D01*
X0011129Y0131171D01*
X0010998Y0131312D01*
X0010870Y0131457D01*
X0010745Y0131605D01*
X0010625Y0131756D01*
X0010508Y0131909D01*
X0010394Y0132066D01*
X0010285Y0132225D01*
X0010180Y0132387D01*
X0010078Y0132552D01*
X0009981Y0132719D01*
X0009888Y0132888D01*
X0009799Y0133060D01*
X0009714Y0133233D01*
X0009634Y0133409D01*
X0009557Y0133587D01*
X0009486Y0133766D01*
X0009418Y0133947D01*
X0009355Y0134130D01*
X0009297Y0134314D01*
X0009243Y0134500D01*
X0009194Y0134687D01*
X0009149Y0134875D01*
X0009109Y0135064D01*
X0009074Y0135254D01*
X0009043Y0135445D01*
X0009017Y0135636D01*
X0008996Y0135828D01*
X0008979Y0136021D01*
X0008967Y0136214D01*
X0008960Y0136407D01*
X0008958Y0136600D01*
X0298958Y0136600D02*
X0298960Y0136793D01*
X0298967Y0136986D01*
X0298979Y0137179D01*
X0298996Y0137372D01*
X0299017Y0137564D01*
X0299043Y0137755D01*
X0299074Y0137946D01*
X0299109Y0138136D01*
X0299149Y0138325D01*
X0299194Y0138513D01*
X0299243Y0138700D01*
X0299297Y0138886D01*
X0299355Y0139070D01*
X0299418Y0139253D01*
X0299486Y0139434D01*
X0299557Y0139613D01*
X0299634Y0139791D01*
X0299714Y0139967D01*
X0299799Y0140140D01*
X0299888Y0140312D01*
X0299981Y0140481D01*
X0300078Y0140648D01*
X0300180Y0140813D01*
X0300285Y0140975D01*
X0300394Y0141134D01*
X0300508Y0141291D01*
X0300625Y0141444D01*
X0300745Y0141595D01*
X0300870Y0141743D01*
X0300998Y0141888D01*
X0301129Y0142029D01*
X0301264Y0142168D01*
X0301403Y0142303D01*
X0301544Y0142434D01*
X0301689Y0142562D01*
X0301837Y0142687D01*
X0301988Y0142807D01*
X0302141Y0142924D01*
X0302298Y0143038D01*
X0302457Y0143147D01*
X0302619Y0143252D01*
X0302784Y0143354D01*
X0302951Y0143451D01*
X0303120Y0143544D01*
X0303292Y0143633D01*
X0303465Y0143718D01*
X0303641Y0143798D01*
X0303819Y0143875D01*
X0303998Y0143946D01*
X0304179Y0144014D01*
X0304362Y0144077D01*
X0304546Y0144135D01*
X0304732Y0144189D01*
X0304919Y0144238D01*
X0305107Y0144283D01*
X0305296Y0144323D01*
X0305486Y0144358D01*
X0305677Y0144389D01*
X0305868Y0144415D01*
X0306060Y0144436D01*
X0306253Y0144453D01*
X0306446Y0144465D01*
X0306639Y0144472D01*
X0306832Y0144474D01*
X0307025Y0144472D01*
X0307218Y0144465D01*
X0307411Y0144453D01*
X0307604Y0144436D01*
X0307796Y0144415D01*
X0307987Y0144389D01*
X0308178Y0144358D01*
X0308368Y0144323D01*
X0308557Y0144283D01*
X0308745Y0144238D01*
X0308932Y0144189D01*
X0309118Y0144135D01*
X0309302Y0144077D01*
X0309485Y0144014D01*
X0309666Y0143946D01*
X0309845Y0143875D01*
X0310023Y0143798D01*
X0310199Y0143718D01*
X0310372Y0143633D01*
X0310544Y0143544D01*
X0310713Y0143451D01*
X0310880Y0143354D01*
X0311045Y0143252D01*
X0311207Y0143147D01*
X0311366Y0143038D01*
X0311523Y0142924D01*
X0311676Y0142807D01*
X0311827Y0142687D01*
X0311975Y0142562D01*
X0312120Y0142434D01*
X0312261Y0142303D01*
X0312400Y0142168D01*
X0312535Y0142029D01*
X0312666Y0141888D01*
X0312794Y0141743D01*
X0312919Y0141595D01*
X0313039Y0141444D01*
X0313156Y0141291D01*
X0313270Y0141134D01*
X0313379Y0140975D01*
X0313484Y0140813D01*
X0313586Y0140648D01*
X0313683Y0140481D01*
X0313776Y0140312D01*
X0313865Y0140140D01*
X0313950Y0139967D01*
X0314030Y0139791D01*
X0314107Y0139613D01*
X0314178Y0139434D01*
X0314246Y0139253D01*
X0314309Y0139070D01*
X0314367Y0138886D01*
X0314421Y0138700D01*
X0314470Y0138513D01*
X0314515Y0138325D01*
X0314555Y0138136D01*
X0314590Y0137946D01*
X0314621Y0137755D01*
X0314647Y0137564D01*
X0314668Y0137372D01*
X0314685Y0137179D01*
X0314697Y0136986D01*
X0314704Y0136793D01*
X0314706Y0136600D01*
X0314704Y0136407D01*
X0314697Y0136214D01*
X0314685Y0136021D01*
X0314668Y0135828D01*
X0314647Y0135636D01*
X0314621Y0135445D01*
X0314590Y0135254D01*
X0314555Y0135064D01*
X0314515Y0134875D01*
X0314470Y0134687D01*
X0314421Y0134500D01*
X0314367Y0134314D01*
X0314309Y0134130D01*
X0314246Y0133947D01*
X0314178Y0133766D01*
X0314107Y0133587D01*
X0314030Y0133409D01*
X0313950Y0133233D01*
X0313865Y0133060D01*
X0313776Y0132888D01*
X0313683Y0132719D01*
X0313586Y0132552D01*
X0313484Y0132387D01*
X0313379Y0132225D01*
X0313270Y0132066D01*
X0313156Y0131909D01*
X0313039Y0131756D01*
X0312919Y0131605D01*
X0312794Y0131457D01*
X0312666Y0131312D01*
X0312535Y0131171D01*
X0312400Y0131032D01*
X0312261Y0130897D01*
X0312120Y0130766D01*
X0311975Y0130638D01*
X0311827Y0130513D01*
X0311676Y0130393D01*
X0311523Y0130276D01*
X0311366Y0130162D01*
X0311207Y0130053D01*
X0311045Y0129948D01*
X0310880Y0129846D01*
X0310713Y0129749D01*
X0310544Y0129656D01*
X0310372Y0129567D01*
X0310199Y0129482D01*
X0310023Y0129402D01*
X0309845Y0129325D01*
X0309666Y0129254D01*
X0309485Y0129186D01*
X0309302Y0129123D01*
X0309118Y0129065D01*
X0308932Y0129011D01*
X0308745Y0128962D01*
X0308557Y0128917D01*
X0308368Y0128877D01*
X0308178Y0128842D01*
X0307987Y0128811D01*
X0307796Y0128785D01*
X0307604Y0128764D01*
X0307411Y0128747D01*
X0307218Y0128735D01*
X0307025Y0128728D01*
X0306832Y0128726D01*
X0306639Y0128728D01*
X0306446Y0128735D01*
X0306253Y0128747D01*
X0306060Y0128764D01*
X0305868Y0128785D01*
X0305677Y0128811D01*
X0305486Y0128842D01*
X0305296Y0128877D01*
X0305107Y0128917D01*
X0304919Y0128962D01*
X0304732Y0129011D01*
X0304546Y0129065D01*
X0304362Y0129123D01*
X0304179Y0129186D01*
X0303998Y0129254D01*
X0303819Y0129325D01*
X0303641Y0129402D01*
X0303465Y0129482D01*
X0303292Y0129567D01*
X0303120Y0129656D01*
X0302951Y0129749D01*
X0302784Y0129846D01*
X0302619Y0129948D01*
X0302457Y0130053D01*
X0302298Y0130162D01*
X0302141Y0130276D01*
X0301988Y0130393D01*
X0301837Y0130513D01*
X0301689Y0130638D01*
X0301544Y0130766D01*
X0301403Y0130897D01*
X0301264Y0131032D01*
X0301129Y0131171D01*
X0300998Y0131312D01*
X0300870Y0131457D01*
X0300745Y0131605D01*
X0300625Y0131756D01*
X0300508Y0131909D01*
X0300394Y0132066D01*
X0300285Y0132225D01*
X0300180Y0132387D01*
X0300078Y0132552D01*
X0299981Y0132719D01*
X0299888Y0132888D01*
X0299799Y0133060D01*
X0299714Y0133233D01*
X0299634Y0133409D01*
X0299557Y0133587D01*
X0299486Y0133766D01*
X0299418Y0133947D01*
X0299355Y0134130D01*
X0299297Y0134314D01*
X0299243Y0134500D01*
X0299194Y0134687D01*
X0299149Y0134875D01*
X0299109Y0135064D01*
X0299074Y0135254D01*
X0299043Y0135445D01*
X0299017Y0135636D01*
X0298996Y0135828D01*
X0298979Y0136021D01*
X0298967Y0136214D01*
X0298960Y0136407D01*
X0298958Y0136600D01*
X0298958Y0016600D02*
X0298960Y0016793D01*
X0298967Y0016986D01*
X0298979Y0017179D01*
X0298996Y0017372D01*
X0299017Y0017564D01*
X0299043Y0017755D01*
X0299074Y0017946D01*
X0299109Y0018136D01*
X0299149Y0018325D01*
X0299194Y0018513D01*
X0299243Y0018700D01*
X0299297Y0018886D01*
X0299355Y0019070D01*
X0299418Y0019253D01*
X0299486Y0019434D01*
X0299557Y0019613D01*
X0299634Y0019791D01*
X0299714Y0019967D01*
X0299799Y0020140D01*
X0299888Y0020312D01*
X0299981Y0020481D01*
X0300078Y0020648D01*
X0300180Y0020813D01*
X0300285Y0020975D01*
X0300394Y0021134D01*
X0300508Y0021291D01*
X0300625Y0021444D01*
X0300745Y0021595D01*
X0300870Y0021743D01*
X0300998Y0021888D01*
X0301129Y0022029D01*
X0301264Y0022168D01*
X0301403Y0022303D01*
X0301544Y0022434D01*
X0301689Y0022562D01*
X0301837Y0022687D01*
X0301988Y0022807D01*
X0302141Y0022924D01*
X0302298Y0023038D01*
X0302457Y0023147D01*
X0302619Y0023252D01*
X0302784Y0023354D01*
X0302951Y0023451D01*
X0303120Y0023544D01*
X0303292Y0023633D01*
X0303465Y0023718D01*
X0303641Y0023798D01*
X0303819Y0023875D01*
X0303998Y0023946D01*
X0304179Y0024014D01*
X0304362Y0024077D01*
X0304546Y0024135D01*
X0304732Y0024189D01*
X0304919Y0024238D01*
X0305107Y0024283D01*
X0305296Y0024323D01*
X0305486Y0024358D01*
X0305677Y0024389D01*
X0305868Y0024415D01*
X0306060Y0024436D01*
X0306253Y0024453D01*
X0306446Y0024465D01*
X0306639Y0024472D01*
X0306832Y0024474D01*
X0307025Y0024472D01*
X0307218Y0024465D01*
X0307411Y0024453D01*
X0307604Y0024436D01*
X0307796Y0024415D01*
X0307987Y0024389D01*
X0308178Y0024358D01*
X0308368Y0024323D01*
X0308557Y0024283D01*
X0308745Y0024238D01*
X0308932Y0024189D01*
X0309118Y0024135D01*
X0309302Y0024077D01*
X0309485Y0024014D01*
X0309666Y0023946D01*
X0309845Y0023875D01*
X0310023Y0023798D01*
X0310199Y0023718D01*
X0310372Y0023633D01*
X0310544Y0023544D01*
X0310713Y0023451D01*
X0310880Y0023354D01*
X0311045Y0023252D01*
X0311207Y0023147D01*
X0311366Y0023038D01*
X0311523Y0022924D01*
X0311676Y0022807D01*
X0311827Y0022687D01*
X0311975Y0022562D01*
X0312120Y0022434D01*
X0312261Y0022303D01*
X0312400Y0022168D01*
X0312535Y0022029D01*
X0312666Y0021888D01*
X0312794Y0021743D01*
X0312919Y0021595D01*
X0313039Y0021444D01*
X0313156Y0021291D01*
X0313270Y0021134D01*
X0313379Y0020975D01*
X0313484Y0020813D01*
X0313586Y0020648D01*
X0313683Y0020481D01*
X0313776Y0020312D01*
X0313865Y0020140D01*
X0313950Y0019967D01*
X0314030Y0019791D01*
X0314107Y0019613D01*
X0314178Y0019434D01*
X0314246Y0019253D01*
X0314309Y0019070D01*
X0314367Y0018886D01*
X0314421Y0018700D01*
X0314470Y0018513D01*
X0314515Y0018325D01*
X0314555Y0018136D01*
X0314590Y0017946D01*
X0314621Y0017755D01*
X0314647Y0017564D01*
X0314668Y0017372D01*
X0314685Y0017179D01*
X0314697Y0016986D01*
X0314704Y0016793D01*
X0314706Y0016600D01*
X0314704Y0016407D01*
X0314697Y0016214D01*
X0314685Y0016021D01*
X0314668Y0015828D01*
X0314647Y0015636D01*
X0314621Y0015445D01*
X0314590Y0015254D01*
X0314555Y0015064D01*
X0314515Y0014875D01*
X0314470Y0014687D01*
X0314421Y0014500D01*
X0314367Y0014314D01*
X0314309Y0014130D01*
X0314246Y0013947D01*
X0314178Y0013766D01*
X0314107Y0013587D01*
X0314030Y0013409D01*
X0313950Y0013233D01*
X0313865Y0013060D01*
X0313776Y0012888D01*
X0313683Y0012719D01*
X0313586Y0012552D01*
X0313484Y0012387D01*
X0313379Y0012225D01*
X0313270Y0012066D01*
X0313156Y0011909D01*
X0313039Y0011756D01*
X0312919Y0011605D01*
X0312794Y0011457D01*
X0312666Y0011312D01*
X0312535Y0011171D01*
X0312400Y0011032D01*
X0312261Y0010897D01*
X0312120Y0010766D01*
X0311975Y0010638D01*
X0311827Y0010513D01*
X0311676Y0010393D01*
X0311523Y0010276D01*
X0311366Y0010162D01*
X0311207Y0010053D01*
X0311045Y0009948D01*
X0310880Y0009846D01*
X0310713Y0009749D01*
X0310544Y0009656D01*
X0310372Y0009567D01*
X0310199Y0009482D01*
X0310023Y0009402D01*
X0309845Y0009325D01*
X0309666Y0009254D01*
X0309485Y0009186D01*
X0309302Y0009123D01*
X0309118Y0009065D01*
X0308932Y0009011D01*
X0308745Y0008962D01*
X0308557Y0008917D01*
X0308368Y0008877D01*
X0308178Y0008842D01*
X0307987Y0008811D01*
X0307796Y0008785D01*
X0307604Y0008764D01*
X0307411Y0008747D01*
X0307218Y0008735D01*
X0307025Y0008728D01*
X0306832Y0008726D01*
X0306639Y0008728D01*
X0306446Y0008735D01*
X0306253Y0008747D01*
X0306060Y0008764D01*
X0305868Y0008785D01*
X0305677Y0008811D01*
X0305486Y0008842D01*
X0305296Y0008877D01*
X0305107Y0008917D01*
X0304919Y0008962D01*
X0304732Y0009011D01*
X0304546Y0009065D01*
X0304362Y0009123D01*
X0304179Y0009186D01*
X0303998Y0009254D01*
X0303819Y0009325D01*
X0303641Y0009402D01*
X0303465Y0009482D01*
X0303292Y0009567D01*
X0303120Y0009656D01*
X0302951Y0009749D01*
X0302784Y0009846D01*
X0302619Y0009948D01*
X0302457Y0010053D01*
X0302298Y0010162D01*
X0302141Y0010276D01*
X0301988Y0010393D01*
X0301837Y0010513D01*
X0301689Y0010638D01*
X0301544Y0010766D01*
X0301403Y0010897D01*
X0301264Y0011032D01*
X0301129Y0011171D01*
X0300998Y0011312D01*
X0300870Y0011457D01*
X0300745Y0011605D01*
X0300625Y0011756D01*
X0300508Y0011909D01*
X0300394Y0012066D01*
X0300285Y0012225D01*
X0300180Y0012387D01*
X0300078Y0012552D01*
X0299981Y0012719D01*
X0299888Y0012888D01*
X0299799Y0013060D01*
X0299714Y0013233D01*
X0299634Y0013409D01*
X0299557Y0013587D01*
X0299486Y0013766D01*
X0299418Y0013947D01*
X0299355Y0014130D01*
X0299297Y0014314D01*
X0299243Y0014500D01*
X0299194Y0014687D01*
X0299149Y0014875D01*
X0299109Y0015064D01*
X0299074Y0015254D01*
X0299043Y0015445D01*
X0299017Y0015636D01*
X0298996Y0015828D01*
X0298979Y0016021D01*
X0298967Y0016214D01*
X0298960Y0016407D01*
X0298958Y0016600D01*
D12*
X0151773Y0029356D02*
X0151775Y0029455D01*
X0151781Y0029555D01*
X0151791Y0029654D01*
X0151805Y0029752D01*
X0151822Y0029850D01*
X0151844Y0029947D01*
X0151869Y0030043D01*
X0151898Y0030138D01*
X0151931Y0030232D01*
X0151968Y0030324D01*
X0152008Y0030415D01*
X0152052Y0030504D01*
X0152100Y0030592D01*
X0152151Y0030677D01*
X0152205Y0030760D01*
X0152262Y0030842D01*
X0152323Y0030920D01*
X0152387Y0030997D01*
X0152453Y0031070D01*
X0152523Y0031141D01*
X0152595Y0031209D01*
X0152670Y0031275D01*
X0152748Y0031337D01*
X0152828Y0031396D01*
X0152910Y0031452D01*
X0152994Y0031504D01*
X0153081Y0031553D01*
X0153169Y0031599D01*
X0153259Y0031641D01*
X0153351Y0031680D01*
X0153444Y0031715D01*
X0153538Y0031746D01*
X0153634Y0031773D01*
X0153731Y0031796D01*
X0153828Y0031816D01*
X0153926Y0031832D01*
X0154025Y0031844D01*
X0154124Y0031852D01*
X0154223Y0031856D01*
X0154323Y0031856D01*
X0154422Y0031852D01*
X0154521Y0031844D01*
X0154620Y0031832D01*
X0154718Y0031816D01*
X0154815Y0031796D01*
X0154912Y0031773D01*
X0155008Y0031746D01*
X0155102Y0031715D01*
X0155195Y0031680D01*
X0155287Y0031641D01*
X0155377Y0031599D01*
X0155465Y0031553D01*
X0155552Y0031504D01*
X0155636Y0031452D01*
X0155718Y0031396D01*
X0155798Y0031337D01*
X0155876Y0031275D01*
X0155951Y0031209D01*
X0156023Y0031141D01*
X0156093Y0031070D01*
X0156159Y0030997D01*
X0156223Y0030920D01*
X0156284Y0030842D01*
X0156341Y0030760D01*
X0156395Y0030677D01*
X0156446Y0030592D01*
X0156494Y0030504D01*
X0156538Y0030415D01*
X0156578Y0030324D01*
X0156615Y0030232D01*
X0156648Y0030138D01*
X0156677Y0030043D01*
X0156702Y0029947D01*
X0156724Y0029850D01*
X0156741Y0029752D01*
X0156755Y0029654D01*
X0156765Y0029555D01*
X0156771Y0029455D01*
X0156773Y0029356D01*
X0156771Y0029257D01*
X0156765Y0029157D01*
X0156755Y0029058D01*
X0156741Y0028960D01*
X0156724Y0028862D01*
X0156702Y0028765D01*
X0156677Y0028669D01*
X0156648Y0028574D01*
X0156615Y0028480D01*
X0156578Y0028388D01*
X0156538Y0028297D01*
X0156494Y0028208D01*
X0156446Y0028120D01*
X0156395Y0028035D01*
X0156341Y0027952D01*
X0156284Y0027870D01*
X0156223Y0027792D01*
X0156159Y0027715D01*
X0156093Y0027642D01*
X0156023Y0027571D01*
X0155951Y0027503D01*
X0155876Y0027437D01*
X0155798Y0027375D01*
X0155718Y0027316D01*
X0155636Y0027260D01*
X0155552Y0027208D01*
X0155465Y0027159D01*
X0155377Y0027113D01*
X0155287Y0027071D01*
X0155195Y0027032D01*
X0155102Y0026997D01*
X0155008Y0026966D01*
X0154912Y0026939D01*
X0154815Y0026916D01*
X0154718Y0026896D01*
X0154620Y0026880D01*
X0154521Y0026868D01*
X0154422Y0026860D01*
X0154323Y0026856D01*
X0154223Y0026856D01*
X0154124Y0026860D01*
X0154025Y0026868D01*
X0153926Y0026880D01*
X0153828Y0026896D01*
X0153731Y0026916D01*
X0153634Y0026939D01*
X0153538Y0026966D01*
X0153444Y0026997D01*
X0153351Y0027032D01*
X0153259Y0027071D01*
X0153169Y0027113D01*
X0153081Y0027159D01*
X0152994Y0027208D01*
X0152910Y0027260D01*
X0152828Y0027316D01*
X0152748Y0027375D01*
X0152670Y0027437D01*
X0152595Y0027503D01*
X0152523Y0027571D01*
X0152453Y0027642D01*
X0152387Y0027715D01*
X0152323Y0027792D01*
X0152262Y0027870D01*
X0152205Y0027952D01*
X0152151Y0028035D01*
X0152100Y0028120D01*
X0152052Y0028208D01*
X0152008Y0028297D01*
X0151968Y0028388D01*
X0151931Y0028480D01*
X0151898Y0028574D01*
X0151869Y0028669D01*
X0151844Y0028765D01*
X0151822Y0028862D01*
X0151805Y0028960D01*
X0151791Y0029058D01*
X0151781Y0029157D01*
X0151775Y0029257D01*
X0151773Y0029356D01*
X0021773Y0029356D02*
X0021775Y0029455D01*
X0021781Y0029555D01*
X0021791Y0029654D01*
X0021805Y0029752D01*
X0021822Y0029850D01*
X0021844Y0029947D01*
X0021869Y0030043D01*
X0021898Y0030138D01*
X0021931Y0030232D01*
X0021968Y0030324D01*
X0022008Y0030415D01*
X0022052Y0030504D01*
X0022100Y0030592D01*
X0022151Y0030677D01*
X0022205Y0030760D01*
X0022262Y0030842D01*
X0022323Y0030920D01*
X0022387Y0030997D01*
X0022453Y0031070D01*
X0022523Y0031141D01*
X0022595Y0031209D01*
X0022670Y0031275D01*
X0022748Y0031337D01*
X0022828Y0031396D01*
X0022910Y0031452D01*
X0022994Y0031504D01*
X0023081Y0031553D01*
X0023169Y0031599D01*
X0023259Y0031641D01*
X0023351Y0031680D01*
X0023444Y0031715D01*
X0023538Y0031746D01*
X0023634Y0031773D01*
X0023731Y0031796D01*
X0023828Y0031816D01*
X0023926Y0031832D01*
X0024025Y0031844D01*
X0024124Y0031852D01*
X0024223Y0031856D01*
X0024323Y0031856D01*
X0024422Y0031852D01*
X0024521Y0031844D01*
X0024620Y0031832D01*
X0024718Y0031816D01*
X0024815Y0031796D01*
X0024912Y0031773D01*
X0025008Y0031746D01*
X0025102Y0031715D01*
X0025195Y0031680D01*
X0025287Y0031641D01*
X0025377Y0031599D01*
X0025465Y0031553D01*
X0025552Y0031504D01*
X0025636Y0031452D01*
X0025718Y0031396D01*
X0025798Y0031337D01*
X0025876Y0031275D01*
X0025951Y0031209D01*
X0026023Y0031141D01*
X0026093Y0031070D01*
X0026159Y0030997D01*
X0026223Y0030920D01*
X0026284Y0030842D01*
X0026341Y0030760D01*
X0026395Y0030677D01*
X0026446Y0030592D01*
X0026494Y0030504D01*
X0026538Y0030415D01*
X0026578Y0030324D01*
X0026615Y0030232D01*
X0026648Y0030138D01*
X0026677Y0030043D01*
X0026702Y0029947D01*
X0026724Y0029850D01*
X0026741Y0029752D01*
X0026755Y0029654D01*
X0026765Y0029555D01*
X0026771Y0029455D01*
X0026773Y0029356D01*
X0026771Y0029257D01*
X0026765Y0029157D01*
X0026755Y0029058D01*
X0026741Y0028960D01*
X0026724Y0028862D01*
X0026702Y0028765D01*
X0026677Y0028669D01*
X0026648Y0028574D01*
X0026615Y0028480D01*
X0026578Y0028388D01*
X0026538Y0028297D01*
X0026494Y0028208D01*
X0026446Y0028120D01*
X0026395Y0028035D01*
X0026341Y0027952D01*
X0026284Y0027870D01*
X0026223Y0027792D01*
X0026159Y0027715D01*
X0026093Y0027642D01*
X0026023Y0027571D01*
X0025951Y0027503D01*
X0025876Y0027437D01*
X0025798Y0027375D01*
X0025718Y0027316D01*
X0025636Y0027260D01*
X0025552Y0027208D01*
X0025465Y0027159D01*
X0025377Y0027113D01*
X0025287Y0027071D01*
X0025195Y0027032D01*
X0025102Y0026997D01*
X0025008Y0026966D01*
X0024912Y0026939D01*
X0024815Y0026916D01*
X0024718Y0026896D01*
X0024620Y0026880D01*
X0024521Y0026868D01*
X0024422Y0026860D01*
X0024323Y0026856D01*
X0024223Y0026856D01*
X0024124Y0026860D01*
X0024025Y0026868D01*
X0023926Y0026880D01*
X0023828Y0026896D01*
X0023731Y0026916D01*
X0023634Y0026939D01*
X0023538Y0026966D01*
X0023444Y0026997D01*
X0023351Y0027032D01*
X0023259Y0027071D01*
X0023169Y0027113D01*
X0023081Y0027159D01*
X0022994Y0027208D01*
X0022910Y0027260D01*
X0022828Y0027316D01*
X0022748Y0027375D01*
X0022670Y0027437D01*
X0022595Y0027503D01*
X0022523Y0027571D01*
X0022453Y0027642D01*
X0022387Y0027715D01*
X0022323Y0027792D01*
X0022262Y0027870D01*
X0022205Y0027952D01*
X0022151Y0028035D01*
X0022100Y0028120D01*
X0022052Y0028208D01*
X0022008Y0028297D01*
X0021968Y0028388D01*
X0021931Y0028480D01*
X0021898Y0028574D01*
X0021869Y0028669D01*
X0021844Y0028765D01*
X0021822Y0028862D01*
X0021805Y0028960D01*
X0021791Y0029058D01*
X0021781Y0029157D01*
X0021775Y0029257D01*
X0021773Y0029356D01*
M02*
