G75*
%MOIN*%
%OFA0B0*%
%FSLAX25Y25*%
%IPPOS*%
%LPD*%
%AMOC8*
5,1,8,0,0,1.08239X$1,22.5*
%
%ADD10C,0.00000*%
D10*
X0016832Y0001600D02*
X0306832Y0001600D01*
X0307194Y0001604D01*
X0307557Y0001618D01*
X0307919Y0001639D01*
X0308280Y0001670D01*
X0308640Y0001709D01*
X0308999Y0001757D01*
X0309357Y0001814D01*
X0309714Y0001879D01*
X0310069Y0001953D01*
X0310422Y0002036D01*
X0310773Y0002127D01*
X0311121Y0002226D01*
X0311467Y0002334D01*
X0311811Y0002450D01*
X0312151Y0002575D01*
X0312488Y0002707D01*
X0312822Y0002848D01*
X0313153Y0002997D01*
X0313480Y0003154D01*
X0313803Y0003318D01*
X0314122Y0003490D01*
X0314436Y0003670D01*
X0314747Y0003858D01*
X0315052Y0004053D01*
X0315353Y0004255D01*
X0315649Y0004465D01*
X0315939Y0004681D01*
X0316225Y0004905D01*
X0316505Y0005135D01*
X0316779Y0005372D01*
X0317047Y0005616D01*
X0317310Y0005866D01*
X0317566Y0006122D01*
X0317816Y0006385D01*
X0318060Y0006653D01*
X0318297Y0006927D01*
X0318527Y0007207D01*
X0318751Y0007493D01*
X0318967Y0007783D01*
X0319177Y0008079D01*
X0319379Y0008380D01*
X0319574Y0008685D01*
X0319762Y0008996D01*
X0319942Y0009310D01*
X0320114Y0009629D01*
X0320278Y0009952D01*
X0320435Y0010279D01*
X0320584Y0010610D01*
X0320725Y0010944D01*
X0320857Y0011281D01*
X0320982Y0011621D01*
X0321098Y0011965D01*
X0321206Y0012311D01*
X0321305Y0012659D01*
X0321396Y0013010D01*
X0321479Y0013363D01*
X0321553Y0013718D01*
X0321618Y0014075D01*
X0321675Y0014433D01*
X0321723Y0014792D01*
X0321762Y0015152D01*
X0321793Y0015513D01*
X0321814Y0015875D01*
X0321828Y0016238D01*
X0321832Y0016600D01*
X0321832Y0136600D01*
X0321828Y0136962D01*
X0321814Y0137325D01*
X0321793Y0137687D01*
X0321762Y0138048D01*
X0321723Y0138408D01*
X0321675Y0138767D01*
X0321618Y0139125D01*
X0321553Y0139482D01*
X0321479Y0139837D01*
X0321396Y0140190D01*
X0321305Y0140541D01*
X0321206Y0140889D01*
X0321098Y0141235D01*
X0320982Y0141579D01*
X0320857Y0141919D01*
X0320725Y0142256D01*
X0320584Y0142590D01*
X0320435Y0142921D01*
X0320278Y0143248D01*
X0320114Y0143571D01*
X0319942Y0143890D01*
X0319762Y0144204D01*
X0319574Y0144515D01*
X0319379Y0144820D01*
X0319177Y0145121D01*
X0318967Y0145417D01*
X0318751Y0145707D01*
X0318527Y0145993D01*
X0318297Y0146273D01*
X0318060Y0146547D01*
X0317816Y0146815D01*
X0317566Y0147078D01*
X0317310Y0147334D01*
X0317047Y0147584D01*
X0316779Y0147828D01*
X0316505Y0148065D01*
X0316225Y0148295D01*
X0315939Y0148519D01*
X0315649Y0148735D01*
X0315353Y0148945D01*
X0315052Y0149147D01*
X0314747Y0149342D01*
X0314436Y0149530D01*
X0314122Y0149710D01*
X0313803Y0149882D01*
X0313480Y0150046D01*
X0313153Y0150203D01*
X0312822Y0150352D01*
X0312488Y0150493D01*
X0312151Y0150625D01*
X0311811Y0150750D01*
X0311467Y0150866D01*
X0311121Y0150974D01*
X0310773Y0151073D01*
X0310422Y0151164D01*
X0310069Y0151247D01*
X0309714Y0151321D01*
X0309357Y0151386D01*
X0308999Y0151443D01*
X0308640Y0151491D01*
X0308280Y0151530D01*
X0307919Y0151561D01*
X0307557Y0151582D01*
X0307194Y0151596D01*
X0306832Y0151600D01*
X0016832Y0151600D01*
X0016470Y0151596D01*
X0016107Y0151582D01*
X0015745Y0151561D01*
X0015384Y0151530D01*
X0015024Y0151491D01*
X0014665Y0151443D01*
X0014307Y0151386D01*
X0013950Y0151321D01*
X0013595Y0151247D01*
X0013242Y0151164D01*
X0012891Y0151073D01*
X0012543Y0150974D01*
X0012197Y0150866D01*
X0011853Y0150750D01*
X0011513Y0150625D01*
X0011176Y0150493D01*
X0010842Y0150352D01*
X0010511Y0150203D01*
X0010184Y0150046D01*
X0009861Y0149882D01*
X0009542Y0149710D01*
X0009228Y0149530D01*
X0008917Y0149342D01*
X0008612Y0149147D01*
X0008311Y0148945D01*
X0008015Y0148735D01*
X0007725Y0148519D01*
X0007439Y0148295D01*
X0007159Y0148065D01*
X0006885Y0147828D01*
X0006617Y0147584D01*
X0006354Y0147334D01*
X0006098Y0147078D01*
X0005848Y0146815D01*
X0005604Y0146547D01*
X0005367Y0146273D01*
X0005137Y0145993D01*
X0004913Y0145707D01*
X0004697Y0145417D01*
X0004487Y0145121D01*
X0004285Y0144820D01*
X0004090Y0144515D01*
X0003902Y0144204D01*
X0003722Y0143890D01*
X0003550Y0143571D01*
X0003386Y0143248D01*
X0003229Y0142921D01*
X0003080Y0142590D01*
X0002939Y0142256D01*
X0002807Y0141919D01*
X0002682Y0141579D01*
X0002566Y0141235D01*
X0002458Y0140889D01*
X0002359Y0140541D01*
X0002268Y0140190D01*
X0002185Y0139837D01*
X0002111Y0139482D01*
X0002046Y0139125D01*
X0001989Y0138767D01*
X0001941Y0138408D01*
X0001902Y0138048D01*
X0001871Y0137687D01*
X0001850Y0137325D01*
X0001836Y0136962D01*
X0001832Y0136600D01*
X0001832Y0016600D01*
X0001836Y0016238D01*
X0001850Y0015875D01*
X0001871Y0015513D01*
X0001902Y0015152D01*
X0001941Y0014792D01*
X0001989Y0014433D01*
X0002046Y0014075D01*
X0002111Y0013718D01*
X0002185Y0013363D01*
X0002268Y0013010D01*
X0002359Y0012659D01*
X0002458Y0012311D01*
X0002566Y0011965D01*
X0002682Y0011621D01*
X0002807Y0011281D01*
X0002939Y0010944D01*
X0003080Y0010610D01*
X0003229Y0010279D01*
X0003386Y0009952D01*
X0003550Y0009629D01*
X0003722Y0009310D01*
X0003902Y0008996D01*
X0004090Y0008685D01*
X0004285Y0008380D01*
X0004487Y0008079D01*
X0004697Y0007783D01*
X0004913Y0007493D01*
X0005137Y0007207D01*
X0005367Y0006927D01*
X0005604Y0006653D01*
X0005848Y0006385D01*
X0006098Y0006122D01*
X0006354Y0005866D01*
X0006617Y0005616D01*
X0006885Y0005372D01*
X0007159Y0005135D01*
X0007439Y0004905D01*
X0007725Y0004681D01*
X0008015Y0004465D01*
X0008311Y0004255D01*
X0008612Y0004053D01*
X0008917Y0003858D01*
X0009228Y0003670D01*
X0009542Y0003490D01*
X0009861Y0003318D01*
X0010184Y0003154D01*
X0010511Y0002997D01*
X0010842Y0002848D01*
X0011176Y0002707D01*
X0011513Y0002575D01*
X0011853Y0002450D01*
X0012197Y0002334D01*
X0012543Y0002226D01*
X0012891Y0002127D01*
X0013242Y0002036D01*
X0013595Y0001953D01*
X0013950Y0001879D01*
X0014307Y0001814D01*
X0014665Y0001757D01*
X0015024Y0001709D01*
X0015384Y0001670D01*
X0015745Y0001639D01*
X0016107Y0001618D01*
X0016470Y0001604D01*
X0016832Y0001600D01*
X0160257Y0029412D02*
X0160259Y0029491D01*
X0160265Y0029570D01*
X0160275Y0029649D01*
X0160289Y0029727D01*
X0160306Y0029804D01*
X0160328Y0029880D01*
X0160353Y0029955D01*
X0160383Y0030028D01*
X0160415Y0030100D01*
X0160452Y0030171D01*
X0160492Y0030239D01*
X0160535Y0030305D01*
X0160581Y0030369D01*
X0160631Y0030431D01*
X0160684Y0030490D01*
X0160739Y0030546D01*
X0160798Y0030600D01*
X0160859Y0030650D01*
X0160922Y0030698D01*
X0160988Y0030742D01*
X0161056Y0030783D01*
X0161126Y0030820D01*
X0161197Y0030854D01*
X0161271Y0030884D01*
X0161345Y0030910D01*
X0161421Y0030932D01*
X0161498Y0030951D01*
X0161576Y0030966D01*
X0161654Y0030977D01*
X0161733Y0030984D01*
X0161812Y0030987D01*
X0161891Y0030986D01*
X0161970Y0030981D01*
X0162049Y0030972D01*
X0162127Y0030959D01*
X0162204Y0030942D01*
X0162281Y0030922D01*
X0162356Y0030897D01*
X0162430Y0030869D01*
X0162503Y0030837D01*
X0162573Y0030802D01*
X0162642Y0030763D01*
X0162709Y0030720D01*
X0162774Y0030674D01*
X0162836Y0030626D01*
X0162896Y0030574D01*
X0162953Y0030519D01*
X0163007Y0030461D01*
X0163058Y0030401D01*
X0163106Y0030338D01*
X0163151Y0030273D01*
X0163193Y0030205D01*
X0163231Y0030136D01*
X0163265Y0030065D01*
X0163296Y0029992D01*
X0163324Y0029917D01*
X0163347Y0029842D01*
X0163367Y0029765D01*
X0163383Y0029688D01*
X0163395Y0029609D01*
X0163403Y0029531D01*
X0163407Y0029452D01*
X0163407Y0029372D01*
X0163403Y0029293D01*
X0163395Y0029215D01*
X0163383Y0029136D01*
X0163367Y0029059D01*
X0163347Y0028982D01*
X0163324Y0028907D01*
X0163296Y0028832D01*
X0163265Y0028759D01*
X0163231Y0028688D01*
X0163193Y0028619D01*
X0163151Y0028551D01*
X0163106Y0028486D01*
X0163058Y0028423D01*
X0163007Y0028363D01*
X0162953Y0028305D01*
X0162896Y0028250D01*
X0162836Y0028198D01*
X0162774Y0028150D01*
X0162709Y0028104D01*
X0162642Y0028061D01*
X0162573Y0028022D01*
X0162503Y0027987D01*
X0162430Y0027955D01*
X0162356Y0027927D01*
X0162281Y0027902D01*
X0162204Y0027882D01*
X0162127Y0027865D01*
X0162049Y0027852D01*
X0161970Y0027843D01*
X0161891Y0027838D01*
X0161812Y0027837D01*
X0161733Y0027840D01*
X0161654Y0027847D01*
X0161576Y0027858D01*
X0161498Y0027873D01*
X0161421Y0027892D01*
X0161345Y0027914D01*
X0161271Y0027940D01*
X0161197Y0027970D01*
X0161126Y0028004D01*
X0161056Y0028041D01*
X0160988Y0028082D01*
X0160922Y0028126D01*
X0160859Y0028174D01*
X0160798Y0028224D01*
X0160739Y0028278D01*
X0160684Y0028334D01*
X0160631Y0028393D01*
X0160581Y0028455D01*
X0160535Y0028519D01*
X0160492Y0028585D01*
X0160452Y0028653D01*
X0160415Y0028724D01*
X0160383Y0028796D01*
X0160353Y0028869D01*
X0160328Y0028944D01*
X0160306Y0029020D01*
X0160289Y0029097D01*
X0160275Y0029175D01*
X0160265Y0029254D01*
X0160259Y0029333D01*
X0160257Y0029412D01*
X0160257Y0123787D02*
X0160259Y0123866D01*
X0160265Y0123945D01*
X0160275Y0124024D01*
X0160289Y0124102D01*
X0160306Y0124179D01*
X0160328Y0124255D01*
X0160353Y0124330D01*
X0160383Y0124403D01*
X0160415Y0124475D01*
X0160452Y0124546D01*
X0160492Y0124614D01*
X0160535Y0124680D01*
X0160581Y0124744D01*
X0160631Y0124806D01*
X0160684Y0124865D01*
X0160739Y0124921D01*
X0160798Y0124975D01*
X0160859Y0125025D01*
X0160922Y0125073D01*
X0160988Y0125117D01*
X0161056Y0125158D01*
X0161126Y0125195D01*
X0161197Y0125229D01*
X0161271Y0125259D01*
X0161345Y0125285D01*
X0161421Y0125307D01*
X0161498Y0125326D01*
X0161576Y0125341D01*
X0161654Y0125352D01*
X0161733Y0125359D01*
X0161812Y0125362D01*
X0161891Y0125361D01*
X0161970Y0125356D01*
X0162049Y0125347D01*
X0162127Y0125334D01*
X0162204Y0125317D01*
X0162281Y0125297D01*
X0162356Y0125272D01*
X0162430Y0125244D01*
X0162503Y0125212D01*
X0162573Y0125177D01*
X0162642Y0125138D01*
X0162709Y0125095D01*
X0162774Y0125049D01*
X0162836Y0125001D01*
X0162896Y0124949D01*
X0162953Y0124894D01*
X0163007Y0124836D01*
X0163058Y0124776D01*
X0163106Y0124713D01*
X0163151Y0124648D01*
X0163193Y0124580D01*
X0163231Y0124511D01*
X0163265Y0124440D01*
X0163296Y0124367D01*
X0163324Y0124292D01*
X0163347Y0124217D01*
X0163367Y0124140D01*
X0163383Y0124063D01*
X0163395Y0123984D01*
X0163403Y0123906D01*
X0163407Y0123827D01*
X0163407Y0123747D01*
X0163403Y0123668D01*
X0163395Y0123590D01*
X0163383Y0123511D01*
X0163367Y0123434D01*
X0163347Y0123357D01*
X0163324Y0123282D01*
X0163296Y0123207D01*
X0163265Y0123134D01*
X0163231Y0123063D01*
X0163193Y0122994D01*
X0163151Y0122926D01*
X0163106Y0122861D01*
X0163058Y0122798D01*
X0163007Y0122738D01*
X0162953Y0122680D01*
X0162896Y0122625D01*
X0162836Y0122573D01*
X0162774Y0122525D01*
X0162709Y0122479D01*
X0162642Y0122436D01*
X0162573Y0122397D01*
X0162503Y0122362D01*
X0162430Y0122330D01*
X0162356Y0122302D01*
X0162281Y0122277D01*
X0162204Y0122257D01*
X0162127Y0122240D01*
X0162049Y0122227D01*
X0161970Y0122218D01*
X0161891Y0122213D01*
X0161812Y0122212D01*
X0161733Y0122215D01*
X0161654Y0122222D01*
X0161576Y0122233D01*
X0161498Y0122248D01*
X0161421Y0122267D01*
X0161345Y0122289D01*
X0161271Y0122315D01*
X0161197Y0122345D01*
X0161126Y0122379D01*
X0161056Y0122416D01*
X0160988Y0122457D01*
X0160922Y0122501D01*
X0160859Y0122549D01*
X0160798Y0122599D01*
X0160739Y0122653D01*
X0160684Y0122709D01*
X0160631Y0122768D01*
X0160581Y0122830D01*
X0160535Y0122894D01*
X0160492Y0122960D01*
X0160452Y0123028D01*
X0160415Y0123099D01*
X0160383Y0123171D01*
X0160353Y0123244D01*
X0160328Y0123319D01*
X0160306Y0123395D01*
X0160289Y0123472D01*
X0160275Y0123550D01*
X0160265Y0123629D01*
X0160259Y0123708D01*
X0160257Y0123787D01*
M02*
