G75*
%MOIN*%
%OFA0B0*%
%FSLAX25Y25*%
%IPPOS*%
%LPD*%
%AMOC8*
5,1,8,0,0,1.08239X$1,22.5*
%
%ADD10R,0.05118X0.06102*%
%ADD11R,0.04724X0.05118*%
%ADD12R,0.07087X0.03937*%
%ADD13R,0.03150X0.04724*%
%ADD14R,0.05000X0.02000*%
%ADD15R,0.02000X0.05000*%
%ADD16R,0.05118X0.04724*%
%ADD17R,0.11811X0.04921*%
D10*
X0297974Y0035950D03*
X0315691Y0035950D03*
X0315691Y0067250D03*
X0297974Y0067250D03*
D11*
X0197082Y0071600D03*
X0189082Y0071600D03*
X0145832Y0058850D03*
X0137832Y0058850D03*
X0065832Y0051600D03*
X0057832Y0051600D03*
D12*
X0190582Y0052929D03*
X0190582Y0062771D03*
D13*
X0198289Y0061600D03*
X0205376Y0061600D03*
X0205376Y0054100D03*
X0198289Y0054100D03*
D14*
G36*
X0175956Y0063289D02*
X0172422Y0066823D01*
X0173836Y0068237D01*
X0177370Y0064703D01*
X0175956Y0063289D01*
G37*
G36*
X0173729Y0061062D02*
X0170195Y0064596D01*
X0171609Y0066010D01*
X0175143Y0062476D01*
X0173729Y0061062D01*
G37*
G36*
X0171502Y0058835D02*
X0167968Y0062369D01*
X0169382Y0063783D01*
X0172916Y0060249D01*
X0171502Y0058835D01*
G37*
G36*
X0169275Y0056608D02*
X0165741Y0060142D01*
X0167155Y0061556D01*
X0170689Y0058022D01*
X0169275Y0056608D01*
G37*
G36*
X0167048Y0054381D02*
X0163514Y0057915D01*
X0164928Y0059329D01*
X0168462Y0055795D01*
X0167048Y0054381D01*
G37*
G36*
X0178183Y0065517D02*
X0174649Y0069051D01*
X0176063Y0070465D01*
X0179597Y0066931D01*
X0178183Y0065517D01*
G37*
G36*
X0180410Y0067744D02*
X0176876Y0071278D01*
X0178290Y0072692D01*
X0181824Y0069158D01*
X0180410Y0067744D01*
G37*
G36*
X0182637Y0069971D02*
X0179103Y0073505D01*
X0180517Y0074919D01*
X0184051Y0071385D01*
X0182637Y0069971D01*
G37*
G36*
X0147602Y0082735D02*
X0144068Y0086269D01*
X0145482Y0087683D01*
X0149016Y0084149D01*
X0147602Y0082735D01*
G37*
G36*
X0145374Y0080508D02*
X0141840Y0084042D01*
X0143254Y0085456D01*
X0146788Y0081922D01*
X0145374Y0080508D01*
G37*
G36*
X0143147Y0078281D02*
X0139613Y0081815D01*
X0141027Y0083229D01*
X0144561Y0079695D01*
X0143147Y0078281D01*
G37*
G36*
X0149829Y0084963D02*
X0146295Y0088497D01*
X0147709Y0089911D01*
X0151243Y0086377D01*
X0149829Y0084963D01*
G37*
G36*
X0152056Y0087190D02*
X0148522Y0090724D01*
X0149936Y0092138D01*
X0153470Y0088604D01*
X0152056Y0087190D01*
G37*
G36*
X0154283Y0089417D02*
X0150749Y0092951D01*
X0152163Y0094365D01*
X0155697Y0090831D01*
X0154283Y0089417D01*
G37*
G36*
X0156510Y0091644D02*
X0152976Y0095178D01*
X0154390Y0096592D01*
X0157924Y0093058D01*
X0156510Y0091644D01*
G37*
G36*
X0158737Y0093871D02*
X0155203Y0097405D01*
X0156617Y0098819D01*
X0160151Y0095285D01*
X0158737Y0093871D01*
G37*
D15*
G36*
X0164928Y0093871D02*
X0163514Y0095285D01*
X0167048Y0098819D01*
X0168462Y0097405D01*
X0164928Y0093871D01*
G37*
G36*
X0167155Y0091644D02*
X0165741Y0093058D01*
X0169275Y0096592D01*
X0170689Y0095178D01*
X0167155Y0091644D01*
G37*
G36*
X0169382Y0089417D02*
X0167968Y0090831D01*
X0171502Y0094365D01*
X0172916Y0092951D01*
X0169382Y0089417D01*
G37*
G36*
X0171609Y0087190D02*
X0170195Y0088604D01*
X0173729Y0092138D01*
X0175143Y0090724D01*
X0171609Y0087190D01*
G37*
G36*
X0173836Y0084963D02*
X0172422Y0086377D01*
X0175956Y0089911D01*
X0177370Y0088497D01*
X0173836Y0084963D01*
G37*
G36*
X0176063Y0082735D02*
X0174649Y0084149D01*
X0178183Y0087683D01*
X0179597Y0086269D01*
X0176063Y0082735D01*
G37*
G36*
X0178290Y0080508D02*
X0176876Y0081922D01*
X0180410Y0085456D01*
X0181824Y0084042D01*
X0178290Y0080508D01*
G37*
G36*
X0180517Y0078281D02*
X0179103Y0079695D01*
X0182637Y0083229D01*
X0184051Y0081815D01*
X0180517Y0078281D01*
G37*
G36*
X0149936Y0061062D02*
X0148522Y0062476D01*
X0152056Y0066010D01*
X0153470Y0064596D01*
X0149936Y0061062D01*
G37*
G36*
X0152163Y0058835D02*
X0150749Y0060249D01*
X0154283Y0063783D01*
X0155697Y0062369D01*
X0152163Y0058835D01*
G37*
G36*
X0154390Y0056608D02*
X0152976Y0058022D01*
X0156510Y0061556D01*
X0157924Y0060142D01*
X0154390Y0056608D01*
G37*
G36*
X0156617Y0054381D02*
X0155203Y0055795D01*
X0158737Y0059329D01*
X0160151Y0057915D01*
X0156617Y0054381D01*
G37*
G36*
X0147709Y0063289D02*
X0146295Y0064703D01*
X0149829Y0068237D01*
X0151243Y0066823D01*
X0147709Y0063289D01*
G37*
G36*
X0145482Y0065517D02*
X0144068Y0066931D01*
X0147602Y0070465D01*
X0149016Y0069051D01*
X0145482Y0065517D01*
G37*
G36*
X0143254Y0067744D02*
X0141840Y0069158D01*
X0145374Y0072692D01*
X0146788Y0071278D01*
X0143254Y0067744D01*
G37*
G36*
X0141027Y0069971D02*
X0139613Y0071385D01*
X0143147Y0074919D01*
X0144561Y0073505D01*
X0141027Y0069971D01*
G37*
D16*
X0061832Y0036350D03*
X0061832Y0044350D03*
X0091832Y0044350D03*
X0091832Y0036350D03*
X0121832Y0036350D03*
X0121832Y0044350D03*
X0151832Y0044350D03*
X0151832Y0036350D03*
X0191832Y0036350D03*
X0191832Y0044350D03*
X0221832Y0044350D03*
X0221832Y0036350D03*
X0251832Y0036350D03*
X0251832Y0044350D03*
X0281832Y0044350D03*
X0281832Y0036350D03*
X0281832Y0108850D03*
X0281832Y0116850D03*
X0251832Y0116850D03*
X0251832Y0108850D03*
X0221832Y0108850D03*
X0221832Y0116850D03*
X0191832Y0116850D03*
X0191832Y0108850D03*
X0151832Y0108850D03*
X0151832Y0116850D03*
X0121832Y0116850D03*
X0121832Y0108850D03*
X0091832Y0108850D03*
X0091832Y0116850D03*
X0061832Y0116850D03*
X0061832Y0108850D03*
D17*
X0046527Y0071600D03*
X0046527Y0061600D03*
X0046527Y0051600D03*
M02*
